<?xml version="1.0"?>
<svg version="1.1" xmlns="http://www.w3.org/2000/svg" width="400px" height="50px" style=""><path fill="#e94949" d="M51.072265625,18.548828125q0-1.23046875,0.421875-1.65234375t1.177734375-0.421875q0.2109375,0,0.4482421875,0.03515625t0.4482421875,0.10546875q1.177734375-0.228515625,2.232421875-0.228515625q1.705078125,0,3.09375,0.59765625q2.232421875,0.94921875,3.69140625,2.8125t2.14453125,4.376953125t0.685546875,5.150390625q0,1.4765625-0.2021484375,3.076171875t-0.7822265625,2.970703125q-0.509765625,1.23046875-1.40625,2.5751953125t-2.0302734375,2.548828125t-2.443359375,2.109375t-2.6455078125,1.2216796875l0,0.140625q0,0.3515625-0.1845703125,0.5712890625t-0.4482421875,0.333984375t-0.6064453125,0.1494140625t-0.6416015625,0.03515625q-0.17578125,0-0.5009765625-0.03515625t-0.6328125-0.1318359375t-0.5185546875-0.2548828125t-0.2109375-0.439453125q0-3.19921875-0.1669921875-6.4072265625t-0.3779296875-6.416015625t-0.3779296875-6.4072265625t-0.1669921875-6.416015625z M54.39453125,17.65234375q0.17578125,1.6875,0.228515625,3.3662109375t0.158203125,3.3662109375q0.28125,4.359375,0.650390625,8.6748046875t0.439453125,8.6748046875q1.6875-1.107421875,2.8916015625-2.53125t1.9775390625-3.09375t1.1337890625-3.5068359375t0.3603515625-3.7880859375q0-1.40625-0.24609375-3.09375t-0.84375-3.251953125t-1.6083984375-2.830078125t-2.5224609375-1.810546875q-0.31640625-0.10546875-0.7646484375-0.17578125t-1.4326171875-0.0703125q-0.10546875,0-0.2109375,0.03515625t-0.2109375,0.03515625z M68.99615234375,36.021484375q0-1.6171875,0.3779296875-3.1728515625t0.6416015625-3.1025390625q0.0703125-0.404296875,0.5537109375-0.5009765625t0.8173828125-0.0966796875q0.580078125,0,0.931640625,0.17578125q0.140625,0.0703125,0.263671875,0.158203125t0.123046875,0.228515625q0,1.51171875-0.3603515625,2.953125t-0.3603515625,3.05859375q0,0.544921875,0.0791015625,1.0283203125t0.1494140625,0.9580078125l0.10546875,0.509765625q0,0.140625,0.017578125,0.24609375t0.052734375,0.24609375q0,0.31640625-0.4482421875,0.4306640625t-0.7822265625,0.1142578125q-0.509765625,0-0.9404296875-0.2021484375t-0.6767578125-0.6943359375l-0.24609375-0.509765625q-0.2109375-0.404296875-0.2109375-0.9052734375t-0.087890625-0.9228515625z M70.12115234375,25.439453125l0-0.333984375q0-0.826171875,0.4130859375-1.4765625t1.2392578125-0.650390625q0.10546875,0,0.2021484375,0.017578125t0.2021484375,0.017578125q0.2109375,0.03515625,0.5537109375,0.1669921875t0.3427734375,0.4130859375l0,0.03515625q-0.0703125,0.140625-0.087890625,0.2900390625t-0.087890625,0.2548828125l0.03515625-0.03515625q-0.2109375,0.544921875-0.3427734375,0.87890625t-0.2900390625,0.5361328125t-0.3955078125,0.2900390625t-0.6767578125,0.087890625q-0.0703125,0-0.24609375-0.017578125t-0.3779296875-0.0703125t-0.3427734375-0.140625t-0.140625-0.263671875z M76.6719921875,30.080078125q0-0.826171875,0.3251953125-1.2216796875t1.1865234375-0.3955078125q0.509765625,0,0.9580078125,0.2109375t0.4482421875,0.896484375q0.0703125,1.001953125,0.0703125,2.1005859375t0.193359375,2.0830078125q0.439453125-0.720703125,0.9931640625-1.44140625t1.2216796875-1.283203125t1.458984375-0.9052734375t1.72265625-0.3427734375q1.265625,0,2.14453125,0.52734375t1.4501953125,1.37109375t0.826171875,1.9072265625t0.2548828125,2.1357421875q0,1.65234375-0.5009765625,2.6982421875t-1.3271484375,1.6435546875t-1.8720703125,0.80859375t-2.1005859375,0.2109375q-0.931640625,0-1.740234375-0.3603515625t-1.125-1.3623046875q0-0.28125,0.4130859375-0.3515625t0.5888671875-0.0703125q0.580078125,0,0.861328125,0.31640625q0.2109375,0.24609375,0.4658203125,0.5009765625t0.5361328125,0.2548828125q0.544921875,0,1.142578125-0.3076171875t1.0986328125-0.80859375t0.84375-1.1865234375t0.3427734375-1.40625q0-0.615234375-0.10546875-1.529296875t-0.3603515625-1.7578125t-0.703125-1.458984375t-1.1337890625-0.615234375q-1.037109375,0-1.8720703125,0.94921875t-1.388671875,2.28515625t-0.861328125,2.77734375t-0.3076171875,2.408203125t0.123046875,2.443359375t0.2548828125,3.0673828125t0.2548828125,3.0673828125t0.123046875,2.443359375q0,0.24609375-0.2021484375,0.3955078125t-0.4833984375,0.2373046875t-0.5712890625,0.10546875t-0.4306640625,0.017578125q-0.474609375,0-0.9931640625-0.10546875t-0.7119140625-0.650390625q-0.24609375-0.861328125-0.45703125-2.4521484375t-0.3779296875-3.515625t-0.2900390625-4.04296875t-0.2109375-4.0869140625t-0.1318359375-3.603515625t-0.0439453125-2.6015625z M93.52361328125,37.1640625q0-1.23046875,0.2724609375-2.900390625t0.9228515625-3.1640625t1.7138671875-2.5400390625t2.6806640625-1.0458984375q1.51171875,0,2.267578125,0.8701171875t0.755859375,2.3466796875q0,0.966796875-0.3603515625,2.1181640625t-1.0283203125,2.1796875t-1.58203125,1.7138671875t-2.0390625,0.685546875l-0.45703125-0.03515625q0,0.474609375,0.140625,1.2744140625t0.4130859375,1.5908203125t0.703125,1.388671875t1.0458984375,0.59765625q0.896484375,0,1.72265625-0.720703125t1.564453125-1.599609375t1.37109375-1.599609375t1.16015625-0.720703125q0.28125,0,0.580078125,0.087890625t0.333984375,0.4921875q0,0.24609375-0.1318359375,0.404296875t-0.2373046875,0.3515625q-0.544921875,0.931640625-1.1865234375,1.775390625t-1.4501953125,1.529296875t-1.7666015625,1.0810546875t-2.1181640625,0.3955078125q-1.51171875,0-2.513671875-0.5361328125t-1.6171875-1.44140625t-0.8876953125-2.091796875t-0.2724609375-2.4873046875z M96.67009765625,35.828125l0.4921875,0.439453125q0.3515625,0.31640625,0.703125,0.140625t0.6328125-0.6416015625t0.5185546875-1.1513671875t0.421875-1.40625t0.2724609375-1.40625t0.087890625-1.142578125l0-0.59765625t-0.052734375-0.6328125t-0.1845703125-0.5009765625t-0.4130859375-0.2548828125q-0.087890625-0.017578125-0.158203125-0.017578125q-0.59765625,0-1.01953125,0.755859375q-0.45703125,0.84375-0.73828125,2.0478515625t-0.404296875,2.4697265625t-0.158203125,1.8984375z M108.213125,31.908203125q0-0.720703125,0.421875-1.2392578125t1.0283203125-0.84375t1.3271484375-0.4833984375t1.3359375-0.158203125q0.474609375,0,1.265625,0.140625t1.546875,0.421875t1.3095703125,0.73828125t0.5537109375,1.072265625q0,0.28125-0.2109375,0.5009765625t-0.439453125,0.2197265625q-0.474609375,0-0.861328125-0.3076171875t-0.7998046875-0.650390625t-0.9052734375-0.650390625t-1.107421875-0.3076171875t-1.1162109375,0.3955078125t-0.5009765625,1.0458984375q0,1.072265625,0.755859375,2.1005859375t1.6611328125,2.162109375t1.6611328125,2.3818359375t0.755859375,2.759765625q0,0.650390625-0.2724609375,1.0986328125t-0.720703125,0.7294921875t-1.0107421875,0.4306640625t-1.08984375,0.1494140625q-0.580078125,0-1.353515625-0.2724609375t-1.458984375-0.720703125t-1.1513671875-1.0458984375t-0.4658203125-1.248046875q0-0.31640625,0.4482421875-0.404296875t0.6591796875-0.087890625q0.10546875,0,0.3251953125,0.0703125t0.4306640625,0.158203125t0.3779296875,0.193359375t0.1318359375,0.228515625q0.17578125,0.2109375,0.5361328125,0.6240234375t0.720703125,0.66796875t0.6328125,0.1845703125t0.2724609375-0.791015625q0-1.37109375-0.73828125-2.5224609375t-1.6083984375-2.25t-1.6083984375-2.1796875t-0.73828125-2.3115234375z M120.59990234375,38.359375l0-1.65234375q0-0.896484375,0.0439453125-2.5400390625t0.1142578125-3.603515625t0.193359375-4.0869140625t0.28125-4.0166015625t0.3779296875-3.3837890625t0.5009765625-2.21484375q0.17578125-0.404296875,0.580078125-0.509765625t0.791015625-0.10546875q0.615234375,0,1.0810546875,0.2724609375t0.4658203125,0.9931640625l-0.31640625,0.3515625q-0.615234375,4.060546875-0.791015625,8.15625t-0.24609375,8.19140625q0.439453125-0.685546875,0.9931640625-1.3447265625t1.23046875-1.1689453125t1.458984375-0.8173828125t1.7138671875-0.3076171875q1.1953125,0,1.9775390625,0.720703125t1.2919921875,1.8720703125t0.755859375,2.5751953125t0.3779296875,2.84765625t0.1845703125,2.6982421875t0.158203125,2.1181640625q-0.333984375,0.45703125-0.984375,0.45703125l-0.052734375,0q-0.28125,0-0.615234375-0.0703125t-0.439453125-0.3515625l0.03515625,0.03515625q-0.24609375-0.544921875-0.333984375-1.5732421875t-0.140625-2.267578125t-0.1845703125-2.5400390625t-0.3955078125-2.35546875t-0.7734375-1.740234375t-1.37109375-0.720703125l-0.10546875,0q-1.037109375,0-1.740234375,0.6328125q-0.73828125,0.66796875-1.1953125,1.7578125t-0.703125,2.42578125t-0.3779296875,2.5751953125t-0.2021484375,2.25t-0.17578125,1.4853515625q-0.10546875,0.404296875-0.6240234375,0.5361328125t-0.8876953125,0.1318359375q-0.861328125,0-1.40625-0.4921875q-0.404296875-0.966796875-0.474609375-2.408203125t-0.0703125-2.8125z M144.26603515625,20.7109375q0-0.826171875,0.0439453125-1.634765625t0.1494140625-1.599609375q0.0703125-0.404296875,0.6240234375-0.580078125t0.9228515625-0.17578125l0.421875,0.03515625q0.509765625,0.0703125,1.0283203125-0.0703125t1.0283203125-0.140625q1.1953125,0,2.671875,0.263671875t2.7685546875,0.896484375t2.1708984375,1.6611328125t0.87890625,2.5400390625t-0.9140625,2.8212890625t-2.302734375,2.302734375t-2.98828125,1.5556640625t-2.935546875,0.5625q0.140625,3.392578125,0.3955078125,6.732421875t0.8701171875,6.6796875l0.03515625,0.228515625q0,0.24609375-0.2197265625,0.404296875t-0.5185546875,0.2548828125t-0.6064453125,0.1318359375t-0.5009765625,0.03515625q-0.439453125,0-1.0634765625-0.1669921875t-0.7646484375-0.6591796875q-0.404296875-1.546875-0.6328125-3.4013671875t-0.333984375-3.8759765625t-0.1494140625-4.0693359375t-0.0439453125-3.9990234375l0-3.955078125q0-0.650390625-0.017578125-1.353515625t-0.017578125-1.423828125z M147.58830078125,17.86328125q0,2.408203125,0.052734375,4.8076171875t0.123046875,4.8076171875q1.037109375-0.2109375,2.1181640625-0.7470703125t1.951171875-1.2744140625t1.40625-1.6787109375t0.5361328125-1.9775390625q0-0.931640625-0.4658203125-1.669921875t-1.2041015625-1.265625q-0.720703125-0.509765625-1.634765625-0.791015625q-0.80859375-0.24609375-1.58203125-0.24609375l-0.193359375,0z M160.572734375,36.443359375q0-1.1953125,0.3251953125-2.302734375t0.9755859375-1.9775390625t1.6259765625-1.388671875t2.2587890625-0.5185546875q0.791015625,0,1.7490234375,0.2373046875t1.8017578125,0.703125t1.40625,1.1865234375t0.5625,1.65234375q0,0.439453125-0.1494140625,0.66796875t-0.6064453125,0.228515625l-0.193359375-0.03515625q0.509765625,1.37109375,0.87890625,2.8125t0.720703125,2.8828125q0.140625,0.28125,0.2109375,0.5009765625t0.0703125,0.4306640625q0,0.28125-0.158203125,0.4658203125t-0.4130859375,0.2724609375t-0.52734375,0.123046875t-0.4833984375,0.03515625q-0.755859375,0-1.1337890625-0.263671875t-0.544921875-0.720703125t-0.2021484375-1.0283203125t-0.140625-1.1513671875q-0.2109375,0.685546875-0.5537109375,1.3359375t-0.80859375,1.1689453125t-1.0986328125,0.826171875t-1.423828125,0.3076171875q-1.16015625,0-1.951171875-0.66796875t-1.2744140625-1.6435546875t-0.703125-2.0830078125t-0.2197265625-2.056640625z M163.068828125,36.197265625q0,0.650390625,0.087890625,1.37109375t0.2900390625,1.423828125t0.5185546875,1.3271484375t0.791015625,1.0986328125q0.861328125-0.931640625,1.2744140625-2.267578125t0.73828125-2.5751953125t0.73828125-2.126953125t1.2744140625-0.8876953125q0.544921875,0,0.9140625,0.193359375q-0.17578125-0.439453125-0.580078125-0.8525390625t-0.9052734375-0.755859375t-1.037109375-0.5625t-1.0107421875-0.2197265625q-0.140625,0-0.3251953125,0.0439453125t-0.2900390625,0.0087890625q-0.720703125,0.2109375-1.1865234375,0.7294921875t-0.755859375,1.2216796875t-0.4130859375,1.44140625t-0.123046875,1.388671875z M175.08646484375,34.896484375q0-0.3515625,0.0791015625-0.931640625t0.1845703125-1.1513671875t0.24609375-1.0634765625t0.333984375-0.6328125q0.140625-0.140625,0.4833984375-0.28125t0.720703125-0.2021484375t0.703125,0.052734375t0.3955078125,0.4658203125q-0.24609375,0.31640625-0.4482421875,1.0810546875t-0.3076171875,1.6962890625q-0.087890625,0.791015625-0.087890625,1.634765625l0,0.298828125q0.017578125,0.984375,0.17578125,1.810546875t0.4833984375,1.3623046875t0.9052734375,0.5361328125q1.23046875,0,2.25-1.1337890625t1.810546875-2.7685546875t1.388671875-3.4716796875t1.01953125-3.2080078125q0.10546875-0.404296875,0.5009765625-0.544921875t0.8525390625-0.0966796875t0.8173828125,0.2197265625t0.4306640625,0.421875q-0.3515625,2.953125-0.5537109375,5.90625t-0.2021484375,5.94140625q0,0.580078125,0.052734375,1.0634765625t-0.052734375,0.826171875t-0.4658203125,0.544921875t-1.1513671875,0.2021484375q-0.17578125,0-0.4482421875-0.03515625t-0.5625-0.1142578125t-0.4921875-0.2373046875t-0.2021484375-0.369140625q0-1.30078125,0.0966796875-2.671875t0.2724609375-2.654296875q-0.474609375,0.685546875-1.0458984375,1.3623046875t-1.2568359375,1.2216796875t-1.4765625,0.8701171875t-1.705078125,0.3251953125q-1.30078125,0-2.0478515625-0.615234375t-1.125-1.5380859375t-0.474609375-2.0126953125t-0.0966796875-2.109375z M191.6216796875,36.232421875q0-1.37109375,0.2900390625-2.4873046875t0.9228515625-1.8896484375t1.6611328125-1.2041015625t2.5048828125-0.4306640625q0.826171875,0,1.6875,0.2197265625t1.4765625,0.8173828125q0-0.3515625,0.0703125-1.4501953125t0.17578125-2.5576171875t0.2197265625-3.05859375t0.2021484375-2.970703125t0.158203125-2.302734375t0.10546875-1.0546875q0.17578125-0.509765625,0.650390625-0.6064453125t0.896484375-0.0966796875q1.107421875,0,1.3623046875,0.3515625t0.2548828125,1.40625q0,3.849609375-0.3427734375,7.6640625t-0.3427734375,7.6640625q0,2.478515625,0.0966796875,4.9833984375t0.6943359375,4.9306640625l0.193359375,0.17578125l0.10546875,0.31640625l-0.263671875,0.404296875q-0.66796875,0.421875-1.546875,0.421875l-0.0703125,0q-0.896484375,0-1.65234375-0.421875q-0.28125-0.17578125-0.4658203125-1.0458984375t-0.2900390625-1.916015625t-0.158203125-2.0126953125t-0.087890625-1.37109375q-0.615234375,1.40625-1.6787109375,2.4169921875t-2.6806640625,1.0107421875q-1.265625,0-2.07421875-0.544921875t-1.2568359375-1.388671875t-0.6328125-1.8896484375t-0.1845703125-2.0830078125z M193.7486328125,36.337890625q0,0.404296875,0.0966796875,1.1953125t0.3076171875,1.58203125t0.5888671875,1.40625t0.9931640625,0.615234375q0.826171875-0.404296875,1.494140625-1.3447265625t1.1513671875-2.07421875t0.755859375-2.267578125t0.2724609375-1.9599609375q0-1.037109375-0.755859375-1.72265625t-1.810546875-0.685546875q-0.31640625,0-0.6416015625,0.123046875t-0.6064453125,0.28125q-0.650390625,0.615234375-1.0107421875,1.1162109375t-0.544921875,1.037109375t-0.2373046875,1.1865234375t-0.052734375,1.51171875z M208.26236328125,37.1640625q0-1.23046875,0.2724609375-2.900390625t0.9228515625-3.1640625t1.7138671875-2.5400390625t2.6806640625-1.0458984375q1.51171875,0,2.267578125,0.8701171875t0.755859375,2.3466796875q0,0.966796875-0.3603515625,2.1181640625t-1.0283203125,2.1796875t-1.58203125,1.7138671875t-2.0390625,0.685546875l-0.45703125-0.03515625q0,0.474609375,0.140625,1.2744140625t0.4130859375,1.5908203125t0.703125,1.388671875t1.0458984375,0.59765625q0.896484375,0,1.72265625-0.720703125t1.564453125-1.599609375t1.37109375-1.599609375t1.16015625-0.720703125q0.28125,0,0.580078125,0.087890625t0.333984375,0.4921875q0,0.24609375-0.1318359375,0.404296875t-0.2373046875,0.3515625q-0.544921875,0.931640625-1.1865234375,1.775390625t-1.4501953125,1.529296875t-1.7666015625,1.0810546875t-2.1181640625,0.3955078125q-1.51171875,0-2.513671875-0.5361328125t-1.6171875-1.44140625t-0.8876953125-2.091796875t-0.2724609375-2.4873046875z M211.40884765625,35.828125l0.4921875,0.439453125q0.3515625,0.31640625,0.703125,0.140625t0.6328125-0.6416015625t0.5185546875-1.1513671875t0.421875-1.40625t0.2724609375-1.40625t0.087890625-1.142578125l0-0.59765625t-0.052734375-0.6328125t-0.1845703125-0.5009765625t-0.4130859375-0.2548828125q-0.087890625-0.017578125-0.158203125-0.017578125q-0.59765625,0-1.01953125,0.755859375q-0.45703125,0.84375-0.73828125,2.0478515625t-0.404296875,2.4697265625t-0.158203125,1.8984375z M222.951875,42.68359375q0-0.509765625,0.0439453125-1.072265625t0.0791015625-1.0546875l0.10546875-2.63671875q0.17578125-3.1640625,0.4306640625-6.22265625t0.4306640625-6.1875q0.10546875-1.72265625,0.158203125-3.3837890625t0.158203125-3.3837890625q-0.0703125-0.140625-0.0703125-0.193359375q0-0.24609375,0.1845703125-0.38671875t0.4306640625-0.2373046875t0.5185546875-0.1318359375t0.4130859375-0.03515625l0.404296875,0q0.544921875,0.0703125,0.791015625,0.3427734375t0.31640625,0.650390625t0.03515625,0.80859375t-0.03515625,0.7998046875q0,2.548828125-0.123046875,5.1943359375t-0.28125,5.30859375t-0.2900390625,5.326171875t-0.1318359375,5.2646484375l0,1.23046875q0,0.826171875-0.4658203125,1.08984375t-1.2919921875,0.263671875q-0.720703125,0-1.265625-0.31640625t-0.544921875-1.037109375z"/><path fill="#" d=""/></svg>
